<svg viewBox="0 0 24 24" version="1.1" xmlns="http://www.w3.org/2000/svg" xmlns:xlink="http://www.w3.org/1999/xlink" class="ubntIcon ubntIcon--navigation">
    <g stroke="none" stroke-width="1" fill="none" fill-rule="evenodd">
        <path
            d="M21.3437176,12.4894431 L23.7173401,22.7751405 C23.8415266,23.3132819 23.5059498,23.8502047 22.9678084,23.9743912 C22.8940658,23.9914087 22.8186297,24 22.7429489,24 L1.25705108,24 C0.704766332,24 0.257051082,23.5522847 0.257051082,23 C0.257051082,22.9243193 0.265642354,22.8488831 0.282659886,22.7751405 L2.63956285,12.5618943 C2.82952541,13.0576894 3.06039284,13.541405 3.33216515,14.007839 L1.25705108,23 L22.7429489,23 L20.6552421,13.9532705 C20.9264372,13.4809554 21.1559291,12.9912278 21.3437176,12.4894431 Z"
            fill="currentColor"
            fill-rule="evenodd"></path>
        <path
            d="M12,0.5 C7.30557963,0.5 3.5,4.30557963 3.5,9 C3.5,13.6944204 7.30557963,17.5 12,17.5 L19,17.5 C19.8284271,17.5 20.5,16.8284271 20.5,16 L20.5,9 C20.5,4.30557963 16.6944204,0.5 12,0.5 Z"
            stroke="currentColor"
            stroke-width="1"
            transform="translate(12.000000, 9.000000) rotate(-315.000000) translate(-12.000000, -9.000000)"></path>
        <circle fill="none" stroke-width="1" stroke="currentColor" cx="12" cy="9" r="3.5"></circle>
    </g>
</svg>